Coordinates
version=1
nRows=14
nColumns=40
inDegrees=yes

Units are S.I. units (second, meters, Newtons, ...)
If the header above contains a line with 'inDegrees', this indicates whether rotational values are in degrees (yes) or radians (no).

endheader
time	pelvis_tilt	pelvis_list	pelvis_rotation	pelvis_tx	pelvis_ty	pelvis_tz	hip_flexion_r	hip_adduction_r	hip_rotation_r	knee_angle_r	knee_angle_r_beta	ankle_angle_r	subtalar_angle_r	mtp_angle_r	hip_flexion_l	hip_adduction_l	hip_rotation_l	knee_angle_l	knee_angle_l_beta	ankle_angle_l	subtalar_angle_l	mtp_angle_l	lumbar_extension	lumbar_bending	lumbar_rotation	arm_flex_r	arm_add_r	arm_rot_r	elbow_flex_r	pro_sup_r	wrist_flex_r	wrist_dev_r	arm_flex_l	arm_add_l	arm_rot_l	elbow_flex_l	pro_sup_l	wrist_flex_l	wrist_dev_l
      0.00000000	    -13.79665780	     -7.14800126	      4.45487423	     -0.37029066	      1.14243093	      0.04994790	     88.27328331	     -6.44605924	     -2.33119813	     96.57829027	      1.68560915	      0.41566309	    -10.76811117	      0.00000000	     57.03717629	    -10.68428667	      9.84893100	     71.69124974	      1.25124835	     -9.15103234	     -0.91339487	      0.00000000	    -42.56513288	      7.39642319	      6.81859960	     89.83464175	    -13.72917759	     34.73914376	     20.13455715	     86.87007434	      0.00000000	      0.00000000	     88.76940084	     -0.19138567	     30.81703938	     15.18749275	     87.31303342	      0.00000000	      0.00000000
      0.00833333	    -13.79356304	     -6.93324367	      4.26323102	     -0.37033125	      1.14233840	      0.04974091	     87.52904349	     -6.28523295	     -2.33893775	     94.94633820	      1.65712621	     -0.02984670	    -10.83791044	      0.00000000	     57.63279726	    -10.76186070	      9.56711277	     73.46464472	      1.28219993	     -8.76724933	     -0.93148417	      0.00000000	    -42.59142072	      7.11821782	      6.82131883	     89.83503783	    -13.79822472	     34.87536246	     20.23176722	     86.82125619	      0.00000000	      0.00000000	     88.74679010	     -0.23707707	     30.93391058	     15.30402949	     87.30012395	      0.00000000	      0.00000000
      0.01666667	    -13.65951841	     -6.79536810	      4.07192523	     -0.37029576	      1.14251974	      0.04969638	     86.59004852	     -6.14128608	     -2.46766274	     93.09424426	      1.62480108	     -0.78130361	    -10.78170070	      0.00000000	     58.12229712	    -10.86630257	      9.49068397	     75.22236589	      1.31287796	     -8.59320563	     -1.02169109	      0.00000000	    -42.76155804	      6.88309640	      6.88940230	     89.83549174	    -13.81540800	     34.70902805	     20.30242507	     86.91878765	      0.00000000	      0.00000000	     88.77936223	     -0.22569701	     30.90397931	     15.29880116	     87.26338599	      0.00000000	      0.00000000
      0.02500000	    -13.62113639	     -6.28254311	      3.89166688	     -0.37014860	      1.14238999	      0.04910088	     85.70407076	     -6.07341387	     -2.13529023	     91.36221520	      1.59457147	     -1.21524055	    -10.54079896	      0.00000000	     58.54876355	    -10.56022223	      9.07387163	     77.09402768	      1.34554462	     -7.55287162	     -1.54679498	      0.00000000	    -42.79113515	      6.37326972	      6.72268402	     89.84408079	    -13.83446559	     34.68703516	     20.23837057	     86.40025273	      0.00000000	      0.00000000	     88.77412671	     -0.09462134	     31.19453470	     15.12759458	     86.71584985	      0.00000000	      0.00000000
      0.03333333	    -13.34589062	     -6.39143517	      3.85138607	     -0.36972091	      1.14264114	      0.04902209	     84.26655235	     -5.78908347	     -2.50088990	     89.42031161	      1.56067886	     -1.53676651	    -11.34928109	      0.00000000	     59.14722759	    -10.84264057	      9.21256239	     78.96867041	      1.37826330	     -7.19735939	     -0.95067665	      0.00000000	    -43.11693707	      6.42348745	      6.86537645	     89.83697149	    -13.78931170	     34.16831581	     20.27705476	     86.90111713	      0.00000000	      0.00000000	     88.77155025	     -0.16117311	     31.24331370	     15.31433802	     87.00011366	      0.00000000	      0.00000000
      0.04166667	    -13.36618375	     -6.23087799	      3.68125537	     -0.36969718	      1.14252587	      0.04890806	     83.34705264	     -5.81313554	     -2.66073365	     87.69129630	      1.53050185	     -1.96113914	    -10.78608030	      0.00000000	     59.88948797	    -10.89150049	      9.11287795	     80.75468122	      1.40943507	     -6.71327074	     -0.90974281	      0.00000000	    -43.07418904	      6.19201884	      6.84826003	     89.83563567	    -13.69753494	     33.80039419	     20.15711546	     86.99057200	      0.00000000	      0.00000000	     88.75150540	     -0.18448702	     31.30253590	     15.31865435	     86.98678376	      0.00000000	      0.00000000
      0.05000000	    -13.33056071	     -6.12605155	      3.49714900	     -0.36963350	      1.14259788	      0.04885269	     82.19881054	     -5.51102782	     -2.72985146	     85.87875964	      1.49886711	     -2.21424122	    -11.08252787	      0.00000000	     60.60988889	    -11.00805904	      9.08216990	     82.52836562	      1.44039171	     -6.23783482	     -0.75512306	      0.00000000	    -43.12957614	      5.98414755	      6.90297570	     89.83506122	    -13.69393833	     33.72832981	     20.16056244	     87.10884180	      0.00000000	      0.00000000	     88.73942619	     -0.18088069	     31.12870135	     15.37521028	     86.95779691	      0.00000000	      0.00000000
      0.05833333	    -13.25868724	     -5.83271065	      3.49807883	     -0.36937256	      1.14261520	      0.04832519	     81.05800898	     -5.66416313	     -2.75617719	     84.11301230	      1.46804901	     -2.61305405	    -10.82165998	      0.00000000	     61.26834816	    -10.79759952	      8.99121127	     84.28071486	      1.47097597	     -5.78111625	     -0.82427417	      0.00000000	    -43.18187734	      5.74739166	      6.72052474	     89.84305812	    -13.80340973	     34.52204701	     20.12973925	     86.50539346	      0.00000000	      0.00000000	     88.73986830	     -0.15373736	     31.44181032	     15.35162797	     86.31480461	      0.00000000	      0.00000000
      0.06666667	    -12.89803986	     -5.75119787	      3.50653459	     -0.36875194	      1.14303094	      0.04810076	     79.49206907	     -5.54893679	     -2.88572254	     82.28347427	      1.43611755	     -2.98548551	    -10.94286667	      0.00000000	     61.69463019	    -10.83733086	      9.04986612	     86.11224323	      1.50294217	     -5.10096950	     -0.53047881	      0.00000000	    -43.55021543	      5.66677285	      6.67720515	     89.83451832	    -13.68697451	     33.65429907	     20.06639505	     87.02819741	      0.00000000	      0.00000000	     88.73583531	     -0.20717472	     31.49620057	     15.44770436	     86.91820232	      0.00000000	      0.00000000
      0.07500000	    -12.81263516	     -5.64602974	      3.40487079	     -0.36851720	      1.14319972	      0.04798042	     78.15400790	     -5.37181883	     -2.96958910	     80.32523438	      1.40193981	     -3.32380388	    -10.86957460	      0.00000000	     62.45650897	    -10.91868417	      9.18104682	     87.82135536	      1.53277180	     -4.55934263	      0.11847283	      0.00000000	    -43.64979395	      5.49959720	      6.67315281	     89.83369092	    -13.68447375	     33.64208506	     20.02179900	     87.13690009	      0.00000000	      0.00000000	     88.70991185	     -0.19346752	     31.21142787	     15.54019146	     86.96312132	      0.00000000	      0.00000000
      0.08333333	    -12.83991207	     -5.09619886	      3.54131141	     -0.36831152	      1.14313365	      0.04694988	     77.00206079	     -5.82151614	     -2.83762038	     78.37666531	      1.36793087	     -3.92086996	    -10.52837843	      0.00000000	     63.23699070	    -10.33798640	      8.89886158	     89.59734049	      1.56376859	     -4.13460435	     -0.31067300	      0.00000000	    -43.58312589	      5.15120565	      6.21757267	     89.84547670	    -13.89164544	     35.17005209	     19.96122105	     85.83665758	      0.00000000	      0.00000000	     88.75276878	     -0.14494185	     32.22002722	     15.42079872	     85.29242782	      0.00000000	      0.00000000
      0.09166667	    -12.70543892	     -5.26733792	      3.20479881	     -0.36810724	      1.14357278	      0.04754417	     75.53257360	     -5.16749796	     -2.96846236	     76.36208353	      1.33276978	     -4.53416295	    -10.73087762	      0.00000000	     63.99501174	    -10.84908310	      9.18773412	     91.30117984	      1.59350620	     -3.19998333	      0.70564577	      0.00000000	    -43.78938564	      5.02809776	      6.57086703	     89.83218545	    -13.71313660	     33.52474498	     19.91929915	     87.04189323	      0.00000000	      0.00000000	     88.76108990	     -0.16838957	     31.73310142	     15.53885212	     86.83669964	      0.00000000	      0.00000000
      0.10000000	    -12.58092938	     -5.06341837	      3.08523694	     -0.36771199	      1.14384076	      0.04733648	     74.09106207	     -5.01984271	     -2.91946358	     74.41920519	      1.29886016	     -5.03019152	    -10.57310820	      0.00000000	     64.75635550	    -10.84940383	      9.21098865	     93.03200406	      1.62371478	     -2.61676598	      1.10492977	      0.00000000	    -43.92668598	      4.76550474	      6.52041499	     89.83143843	    -13.71162527	     33.45737753	     19.84724453	     87.07802812	      0.00000000	      0.00000000	     88.75197221	     -0.15357489	     31.75523827	     15.57720552	     86.90571505	      0.00000000	      0.00000000
      0.10833333	    -12.54322744	     -4.95792129	      2.99661278	     -0.36742773	      1.14396487	      0.04727294	     72.73831653	     -4.86774446	     -2.97884794	     72.52460019	      1.26579306	     -5.51987876	    -10.65200623	      0.00000000	     65.67658399	    -10.89233569	      9.39792803	     94.71043585	      1.65300894	     -1.96686322	      1.81031242	      0.00000000	    -43.96688761	      4.58609046	      6.51433756	     89.83191931	    -13.72219501	     33.53092404	     19.72487924	     86.88822757	      0.00000000	      0.00000000	     88.76615600	     -0.14968525	     32.15801950	     15.58678421	     86.82554877	      0.00000000	      0.00000000
